<?xml version="1.0" encoding="utf-8"?>
<!-- Generator: Adobe Illustrator 19.0.0, SVG Export Plug-In . SVG Version: 6.00 Build 0)  -->
<svg version="1.1" id="Layer_1" xmlns="http://www.w3.org/2000/svg" xmlns:xlink="http://www.w3.org/1999/xlink" x="0px" y="0px"
	 viewBox="0 0 6144 6144" style="enable-background:new 0 0 6144 6144;" xml:space="preserve">
<style type="text/css">
	.st0{fill:#5AE053;}
	.st1{fill:#43AAFF;}
	.st2{fill:#FF8585;}
</style>
<path id="XMLID_8_" class="st0" d="M112.3,3240.8c0-63.1,94.6-157.7,157.7-157.7c157.7,0,410,0,536.3,0
	c63.1,0,189.3,94.6,189.3,157.7c0,126.2,0,347,0,504.7c0,63.1-126.2,157.7-189.3,157.7c-126.2,0-378.6,0-536.3,0
	c-63.1,0-157.7-94.6-157.7-126.2C112.3,3650.8,112.3,3398.5,112.3,3240.8z"/>
<path id="XMLID_5_" class="st1" d="M1058.6,3240.8c0-63.1,94.6-157.7,157.7-157.7c157.7,0,410,0,536.3,0
	c63.1,0,189.3,94.6,189.3,157.7c0,126.2,0,347,0,504.7c0,63.1-126.2,157.7-189.3,157.7c-126.2,0-378.6,0-536.3,0
	c-63.1,0-157.7-94.6-157.7-126.2C1058.6,3650.8,1058.6,3398.5,1058.6,3240.8z"/>
<path id="XMLID_1_" class="st2" d="M1058.6,2389.1c0-63.1,94.6-157.7,157.7-157.7c157.7,0,410,0,536.3,0
	c63.1,0,189.3,94.6,189.3,157.7c0,126.2,0,347,0,504.7c0,63.1-126.2,157.7-189.3,157.7c-126.2,0-378.6,0-536.3,0
	c-63.1,0-157.7-94.6-157.7-126.2C1058.6,2767.6,1058.6,2483.8,1058.6,2389.1z"/>
<path id="XMLID_17_" d="M5745.7,2211.1c-112,0.9-500.3,0-745.4,0c-40.9,0-163.3,81.7-163.3,163.3c0,449.3,20.2,1111,20.2,1504.7
	c0,22.8,40.9,40.9,81.7,40.9c40.9,0,61.4,2.2,81.7,0c22.7-2.5,81.7-18,81.7-40.9c0-215.4,0-577.3,0-577.3s541.2,0,745.4,0
	c62.7,0,122-33.2,149.7-74.8c30.4-45.6,32.7-153.3,32.7-287.6c0-163.3,1.6-519.3,1.6-564.5c0-30.7-20.4-104.9-86-137.3
	C5875.6,2203.1,5850.2,2210.3,5745.7,2211.1z M5831.5,2970c0,56.7-10.2,140.4-103.5,140.4c-245.1,0-625.7,0-625.7,0l0.2-696.4
	c0,0,418.7,0,663.7,0c45,0,65.3,30,65.3,75C5831.5,2611.3,5831.5,2903.7,5831.5,2970z"/>
<path id="XMLID_14_" d="M3214.5,2397.7c-81.7-81.7-244.9-170-326.4-170c-122.4,0-141,0-263.4,0c-81.7,0-285.7,47.6-367.2,129.1
	c-81.7,81.7-163.2,244.9-163.2,367.2l-10.6,1095.2c0,40.8,40.8,81.7,81.7,81.7h81.7c40.8,0,81.7-40.8,81.7-81.7
	c0-163.2,10.6-504.9,10.6-504.9h793.9c0,0,9.8,341.7,9.8,504.9c0,40.8,18.2,78.4,40.8,81.7c34.8,5.1,122.4,0,122.4,0
	c40.8,0,72.1-28.8,72.1-69.6l-9.8-1095.2C3368.2,2654.5,3296.2,2479.3,3214.5,2397.7z M3133,3110.4h-834.8c0,0,0-263.9,0-386.3
	c0-40.8,81.7-163.2,81.7-163.2c40.8-40.8,163.2-122.4,204-122.4c122.4,0,141,0,263.4,0c40.8,0,163.2,81.7,204,122.4
	c40.8,40.8,81.7,122.4,81.7,163.2C3133,2846.5,3133,3110.4,3133,3110.4z"/>
<path id="XMLID_9_" d="M4491.1,2508.7c0-40.9-33.8-81.7-115.6-81.7l-539.2,1.1c-81.8,0-81.8,122.5-81.8,204.3l-0.3,933.7
	c0,81.8,0,163.4,81.8,163.4l450.3-1.1c81.8,0,204.3-81.8,204.3-163.4v-124.3h204.3v247c0,60.4-26.1,127.8-81.1,173.6
	c-56.5,47-142.9,71.7-205,71.7l-532.1,1.1c-81.8,0-204.3-40.9-286.1-122.5c-81.8-81.8-81.8-204.3-81.8-286.1
	c0-408.7,0.3-484.1,0.3-892.8c0-122.5,0-163.4,81.8-286.1c81.8-81.8,163.4-122.5,286.1-122.5c572.1,0,286.9-1.1,532.1-1.1
	c59.1,0,178.5,9,233.8,62.1c59.3,57,62.7,157.9,62.7,221.4c0,81.8,0,264,0,264h-204.2C4501.5,2647.6,4491.1,2549.6,4491.1,2508.7z"
	/>
</svg>
