<?xml version="1.0" encoding="utf-8"?>
<!-- Generator: Adobe Illustrator 19.0.0, SVG Export Plug-In . SVG Version: 6.00 Build 0)  -->
<svg version="1.1" id="Tumblr" xmlns="http://www.w3.org/2000/svg" xmlns:xlink="http://www.w3.org/1999/xlink" x="0px" y="0px"
	 viewBox="-469 471 20 20" style="enable-background:new -469 471 20 20;" xml:space="preserve">
<style type="text/css">
	.st0{fill:#1D79FF;}
	.st1{fill:#FFFFFF;}
</style>
<polygon id="XMLID_4_" points="-466.6,475.1 -466.4,475.9 -465.2,477 -466.3,477.9 -465.9,478.7 -465.7,479.9 -466.4,481.8 
	-464.2,481.3 -464.6,481.8 -466,482.3 -464.6,485.4 -465.3,486.2 -464.8,487.8 -461.5,486.9 -459.6,487.2 -457.9,486.7 -460,490.9 
	-454.9,483.1 -451,481.5 -458.8,483.3 -456.7,483.6 -457.9,484.8 -459.4,485.2 -461.2,484.6 -461.5,481.9 -458.3,477.3 -454.7,476 
	-456.4,478.6 -452.8,475.1 -457.9,475.6 -460,474.4 -461.3,473.1 "/>
<polygon id="XMLID_3_" class="st0" points="-464,481.3 -463.7,481.6 -463,481.3 -462.8,481 "/>
<polyline id="XMLID_2_" class="st1" points="-466.3,479.1 -466.3,479.1 -466.4,479.1 -466.3,480.3 -463.1,478.9 -462.4,478 
	-454.9,473 -463.4,477.5 "/>
<polyline id="XMLID_1_" class="st1" points="-466.3,479.1 -459.9,471.1 -463.4,477.5 "/>
</svg>
