<?xml version="1.0" encoding="utf-8"?>
<!-- Generator: Adobe Illustrator 19.0.0, SVG Export Plug-In . SVG Version: 6.00 Build 0)  -->
<svg version="1.1" id="Layer_1" xmlns="http://www.w3.org/2000/svg" xmlns:xlink="http://www.w3.org/1999/xlink" x="0px" y="0px"
	 viewBox="0 0 512 512" style="enable-background:new 0 0 512 512;" xml:space="preserve">
<style type="text/css">
	.st0{fill:#1D79FF;}
	.st1{fill:#FFFFFF;}
</style>
<polygon id="XMLID_6_" points="61.1,108.6 66.1,128.5 96.1,156 68.6,178.5 78.6,198.5 83.6,228.5 66.1,276 121,263.5 111.1,276 
	76.1,288.5 111.1,366 93.6,386 106.1,425.9 188.5,403.4 236,410.9 278.5,398.5 226,503.4 353.5,308.5 450.9,268.5 256,313.5 
	308.5,321 278.5,351 241,361 196,346 188.5,278.5 268.5,163.5 358.5,131 316,196 405.9,108.6 278.5,121 226,91.1 193.5,58.6 "/>
<polygon id="XMLID_4_" class="st0" points="126,263.5 133.5,271 151,263.5 156,256 "/>
<polyline id="XMLID_3_" class="st1" points="68.6,208.5 68.6,208.5 66.1,208.5 68.6,238.5 148.5,203.5 166,181 353.5,56.1 
	141,168.5 "/>
<polyline id="XMLID_2_" class="st1" points="68.6,208.5 228.5,8.6 141,168.5 "/>
</svg>
